<?xml version="1.0" encoding="utf-8"?>
<!-- Generator: Adobe Illustrator 17.1.0, SVG Export Plug-In . SVG Version: 6.00 Build 0)  -->
<!DOCTYPE svg PUBLIC "-//W3C//DTD SVG 1.1//EN" "http://www.w3.org/Graphics/SVG/1.1/DTD/svg11.dtd">
<svg version="1.1" id="Untitled-Page_x25_201" xmlns="http://www.w3.org/2000/svg" xmlns:xlink="http://www.w3.org/1999/xlink"
	 x="0px" y="0px" viewBox="6.059 6.559 12.883 12.883" enable-background="new 6.059 6.559 12.883 12.883" xml:space="preserve">
<path fill="none" d="z"/>
<path fill="#000333" d="M13.914,13l4.734-4.734c0.391-0.391,0.391-1.023,0-1.414s-1.023-0.391-1.414,0L12.5,11.586L7.766,6.852
	c-0.391-0.391-1.023-0.391-1.414,0s-0.391,1.023,0,1.414L11.086,13l-4.734,4.734c-0.391,0.391-0.391,1.023,0,1.414
	c0.195,0.195,0.451,0.293,0.707,0.293s0.512-0.098,0.707-0.293l4.734-4.734l4.734,4.734c0.195,0.195,0.451,0.293,0.707,0.293
	s0.512-0.098,0.707-0.293c0.391-0.391,0.391-1.023,0-1.414L13.914,13z"/>
<path fill="none" d="z"/>
</svg>
