<?xml version="1.0" encoding="utf-8"?>
<!-- Generator: Adobe Illustrator 17.1.0, SVG Export Plug-In . SVG Version: 6.00 Build 0)  -->
<!DOCTYPE svg PUBLIC "-//W3C//DTD SVG 1.1//EN" "http://www.w3.org/Graphics/SVG/1.1/DTD/svg11.dtd">
<svg version="1.1" id="Layer_1" xmlns="http://www.w3.org/2000/svg" xmlns:xlink="http://www.w3.org/1999/xlink" x="0px" y="0px"
	 viewBox="0 0 25 25" enable-background="new 0 0 25 25" xml:space="preserve">
<g>
	<line fill="none" stroke="#449FDB" x1="0" y1="0" x2="0" y2="0"/>
</g>
<path d="M12.5,0C19.4,0,25,5.6,25,12.5c0,6.4-4.8,11.6-10.9,12.4v-9.3h4.3l0.4-3.1h-4.7v-1.6c0-0.9,0.7-1.6,1.6-1.6h3.1V6.2h-3.1
	c-2.6,0-4.7,2.1-4.7,4.7v1.6H8.6v3.1h2.3v9.3C4.8,24.1,0,18.9,0,12.5C0,5.6,5.6,0,12.5,0L12.5,0z"/>
</svg>
