<?xml version="1.0" encoding="utf-8"?>
<!-- Generator: Adobe Illustrator 17.1.0, SVG Export Plug-In . SVG Version: 6.00 Build 0)  -->
<!DOCTYPE svg PUBLIC "-//W3C//DTD SVG 1.1//EN" "http://www.w3.org/Graphics/SVG/1.1/DTD/svg11.dtd">
<svg version="1.1" id="jobmatch-r2.fw-I_x25_20Can_x25_201-1"
	 xmlns="http://www.w3.org/2000/svg" xmlns:xlink="http://www.w3.org/1999/xlink" x="0px" y="0px" viewBox="9.5 9.5 37 37"
	 enable-background="new 9.5 9.5 37 37" xml:space="preserve">
<path d="M37.5,23.5l-8.8-6.2C28.5,17.1,28.3,17,28,17s-0.5,0.1-0.7,0.2l-8.8,6.2c-0.3,0.2-0.5,0.6-0.5,1v11.2c0,0.7,0.6,1.2,1.2,1.2
	h5v-7.5c0-0.7,0.6-1.2,1.2-1.2h5c0.7,0,1.2,0.6,1.2,1.2V37h5c0.7,0,1.2-0.6,1.2-1.2V24.5C38,24.1,37.8,23.7,37.5,23.5z"/>
<path d="M28,46.5C17.8,46.5,9.5,38.2,9.5,28S17.8,9.5,28,9.5S46.5,17.8,46.5,28S38.2,46.5,28,46.5z M28,10.5
	c-9.6,0-17.5,7.9-17.5,17.5S18.4,45.5,28,45.5S45.5,37.6,45.5,28S37.6,10.5,28,10.5z"/>
</svg>
