<?xml version="1.0" encoding="utf-8"?>
<!-- Generator: Adobe Illustrator 17.1.0, SVG Export Plug-In . SVG Version: 6.00 Build 0)  -->
<!DOCTYPE svg PUBLIC "-//W3C//DTD SVG 1.1//EN" "http://www.w3.org/Graphics/SVG/1.1/DTD/svg11.dtd">
<svg version="1.1" id="Layer_1" xmlns="http://www.w3.org/2000/svg" xmlns:xlink="http://www.w3.org/1999/xlink" x="0px" y="0px"
	 viewBox="0 0 29.4 29.4" enable-background="new 0 0 29.4 29.4" xml:space="preserve">
<g>
	<line fill="none" stroke="#449FDB" x1="0" y1="0" x2="0" y2="0"/>
</g>
<path d="M15,0.6C7,0.6,0.6,7,0.6,15S7,29.4,15,29.4S29.4,23,29.4,15S23,0.6,15,0.6z M11.5,21H8.6v-9.4h2.9V21z M10,10.4
	c-0.9,0-1.5-0.7-1.5-1.5c0-0.8,0.6-1.5,1.6-1.5s1.5,0.6,1.5,1.5C11.6,9.8,11,10.4,10,10.4L10,10.4z M22.1,21h-2.9v-5.2
	c0-1.2-0.4-2-1.5-2c-0.8,0-1.3,0.6-1.5,1.1c-0.1,0.2-0.1,0.5-0.1,0.7V21h-2.9v-6.4c0-1.2,0-2.1-0.1-3h2.5l0.1,1.3h0.1
	c0.4-0.6,1.3-1.5,2.9-1.5c1.9,0,3.4,1.3,3.4,4L22.1,21L22.1,21z"/>
</svg>
