<?xml version="1.0" encoding="utf-8"?>
<!-- Generator: Adobe Illustrator 17.1.0, SVG Export Plug-In . SVG Version: 6.00 Build 0)  -->
<!DOCTYPE svg PUBLIC "-//W3C//DTD SVG 1.1//EN" "http://www.w3.org/Graphics/SVG/1.1/DTD/svg11.dtd">
<svg version="1.1" id="Layer_1" xmlns="http://www.w3.org/2000/svg" xmlns:xlink="http://www.w3.org/1999/xlink" x="0px" y="0px"
	 viewBox="0 0 28 29" enable-background="new 0 0 28 29" xml:space="preserve">
<path fill="#0074E4" d="M27.539,26.418l-8.774-8.422c1.949-1.911,3.156-4.529,3.156-7.416C21.92,4.746,17.003,0,10.96,0
	S0,4.746,0,10.58s4.917,10.58,10.96,10.58c1.945,0,3.769-0.497,5.354-1.358l9.147,8.78C25.752,28.861,26.126,29,26.5,29
	c0.394,0,0.788-0.154,1.082-0.461C28.156,27.941,28.136,26.992,27.539,26.418z M3,10.58C3,6.4,6.571,3,10.96,3s7.96,3.4,7.96,7.58
	s-3.571,7.58-7.96,7.58S3,14.76,3,10.58z"/>
</svg>
