<?xml version="1.0" encoding="utf-8"?>
<!-- Generator: Adobe Illustrator 17.1.0, SVG Export Plug-In . SVG Version: 6.00 Build 0)  -->
<!DOCTYPE svg PUBLIC "-//W3C//DTD SVG 1.1//EN" "http://www.w3.org/Graphics/SVG/1.1/DTD/svg11.dtd">
<svg version="1.1" id="Layer_1" xmlns="http://www.w3.org/2000/svg" xmlns:xlink="http://www.w3.org/1999/xlink" x="0px" y="0px"
	 viewBox="0 0 30 30" enable-background="new 0 0 30 30" xml:space="preserve">
<ellipse cx="15" cy="25" rx="10.1" ry="2.7"/>
<path d="M14.9,0.1c-8.3,0-15,6.7-15,15c0,8.3,6.7,15,15,15c8.3,0,15-6.7,15-15C29.9,6.8,23.2,0.1,14.9,0.1z M25.1,24.7
	c-0.8-2.7-6.1-5-7.6-5.2h0C17,19.4,17,18,17,18s1.5-1.5,1.8-3.4c0.9,0,1.4-2.1,0.5-2.8c0-0.8,1.1-6.1-4.3-6.1s-4.4,5.3-4.3,6.1
	c-0.9,0.7-0.3,2.8,0.5,2.8c0.3,2,1.8,3.4,1.8,3.4s0,1.4-0.5,1.5c-1.5,0.2-7,2.6-7.6,5.4c-2.4-2.5-3.9-6-3.9-9.7c0-7.7,6.3-14,14-14
	s14,6.3,14,14C29,18.8,27.5,22.2,25.1,24.7z"/>
</svg>
